<svg viewBox="0 0 700 700" xmlns="http://www.w3.org/2000/svg">
  <symbol id="dashboard" viewBox="0 0 700 700" width="32" height="32">
    <path d="M336.282 170.608H177.488a6.868 6.868 0 0 0-6.867 6.867v110.347-.005c0 1.82.726 3.567 2.013 4.854a6.868 6.868 0 0 0 4.854 2.013h158.794c1.82 0 3.566-.726 4.854-2.013a6.868 6.868 0 0 0 2.013-4.854V177.475c0-1.82-.727-3.566-2.013-4.853a6.868 6.868 0 0 0-4.854-2.014zm-6.863 110.347H184.357v-96.617H329.42zm6.863 26.935H177.488a6.864 6.864 0 0 0-6.867 6.863v206.45a6.869 6.869 0 0 0 6.867 6.862h158.794a6.864 6.864 0 0 0 6.867-6.863v-206.45a6.869 6.869 0 0 0-6.867-6.862zm-6.863 206.438H184.357V321.622H329.42zm193.106-151.004H363.731a6.867 6.867 0 0 0-6.867 6.862v151.016a6.869 6.869 0 0 0 6.867 6.863h158.794a6.864 6.864 0 0 0 6.867-6.863V370.186a6.869 6.869 0 0 0-6.867-6.862zm-6.862 151.004H370.601V377.044l145.062.005zM511.2 211.084c0-.069-.138-.096-.18-.165h.005a86.247 86.247 0 0 0-55.268-32.263 86.278 86.278 0 0 0-62.282 14.69 86.277 86.277 0 0 0-35.02 53.563 86.25 86.25 0 0 0 63.242 100.63 86.233 86.233 0 0 0 63.45-8.32h.123l.18-.152-.005.004a85.955 85.955 0 0 0 42.223-57.9 85.938 85.938 0 0 0-16.345-69.77c-.055-.138-.07-.235-.124-.317zm-15.43 3.282-45.785 35.568.005-57.81a72.03 72.03 0 0 1 45.78 22.242zm-125.176 49.587a72.38 72.38 0 0 1 18.955-48.599 72.379 72.379 0 0 1 46.704-23.23v71.824c0 .11.083.193.083.29a6.767 6.767 0 0 0 .795 3.075l35.24 62.902a71.788 71.788 0 0 1-29.25 6.274 72.602 72.602 0 0 1-51.264-21.272 72.6 72.6 0 0 1-21.263-51.264zm113.753 59.565-32.345-57.754 52.165-40.569a71.926 71.926 0 0 1 10.025 53.195 71.958 71.958 0 0 1-29.886 45.128zm-69.066 74.131a6.864 6.864 0 0 1 6.862-6.867h72.923a6.864 6.864 0 0 1 6.863 6.867 6.863 6.863 0 0 1-6.863 6.863h-72.923a6.863 6.863 0 0 1-6.862-6.863zm86.652 27.455h-.004c0 1.82-.722 3.566-2.009 4.853a6.864 6.864 0 0 1-4.854 2.009h-45.468a6.863 6.863 0 0 1 0-13.725h45.468c1.82 0 3.567.722 4.854 2.009a6.864 6.864 0 0 1 2.009 4.854zm-283.205-82.369a6.86 6.86 0 0 1 6.863-6.862h58.219a6.864 6.864 0 0 1 6.867 6.862 6.864 6.864 0 0 1-6.867 6.863h-58.22a6.86 6.86 0 0 1-6.862-6.863zm-20.136 2.593-.005.005a8.077 8.077 0 0 1-.547-2.611 6.973 6.973 0 0 1 2.06-4.804 6.953 6.953 0 0 1 9.744 0 6.959 6.959 0 0 1 0 9.607 5.269 5.269 0 0 1-2.335 1.512c-.81.391-1.706.58-2.607.547a6.41 6.41 0 0 1-4.803-2.059 6.234 6.234 0 0 1-1.512-2.192zm20.136 24.862a6.863 6.863 0 0 1 6.863-6.862h58.219a6.867 6.867 0 0 1 6.867 6.862 6.868 6.868 0 0 1-6.867 6.867h-58.22a6.864 6.864 0 0 1-6.862-6.867zm-18.629 4.927v.005a7.612 7.612 0 0 1-2.06-4.946c.037-.891.221-1.774.548-2.606a6.25 6.25 0 0 1 1.512-2.197 6.85 6.85 0 0 1 7.41-1.507 5.26 5.26 0 0 1 2.335 1.507 6.844 6.844 0 0 1 1.92 4.803 6.59 6.59 0 0 1-6.862 6.867 6.867 6.867 0 0 1-4.803-1.92zm18.63 22.528v.005a6.864 6.864 0 0 1 6.862-6.867h58.219a6.868 6.868 0 0 1 6.867 6.867 6.867 6.867 0 0 1-6.867 6.862h-58.22a6.863 6.863 0 0 1-6.862-6.862zm-20.137 2.592-.005.005a8.05 8.05 0 0 1-.547-2.606 6.92 6.92 0 0 1 4.316-6.297 6.93 6.93 0 0 1 7.488 1.49 6.847 6.847 0 0 1 1.92 4.807 7.446 7.446 0 0 1-1.92 4.941 6.593 6.593 0 0 1-2.335 1.374c-.81.391-1.706.58-2.606.547a6.867 6.867 0 0 1-4.804-1.92 8.489 8.489 0 0 1-1.512-2.336zm-.51-195.306v.005a6.86 6.86 0 0 1 6.862-6.863h87.405a6.86 6.86 0 0 1 6.863 6.863 6.86 6.86 0 0 1-6.863 6.862h-87.446a6.863 6.863 0 0 1-6.821-6.862zm0 27.454v.005a6.86 6.86 0 0 1 6.862-6.862h32.492a6.864 6.864 0 1 1 0 13.73h-32.533a6.867 6.867 0 0 1-6.821-6.868zm73.304 234.302 32.04-40.637a6.866 6.866 0 0 1 9.644-1.144 6.866 6.866 0 0 1 1.15 9.643l-36.86 46.677a6.867 6.867 0 0 1-10.282.575l-24.577-24.725-32.097 42.007h.005a6.87 6.87 0 0 1-10.916-8.348l36.9-48.267a6.872 6.872 0 0 1 5.01-2.744 7.172 7.172 0 0 1 5.327 2.031zm264.413-336.803H164.2a34.299 34.299 0 0 0-24.264 10.053 34.299 34.299 0 0 0-10.053 24.264V535.8c0 9.1 3.613 17.83 10.053 24.264a34.299 34.299 0 0 0 24.264 10.053H535.8c9.1 0 17.83-3.613 24.264-10.053a34.299 34.299 0 0 0 10.053-24.264V164.2c0-9.1-3.613-17.83-10.053-24.264a34.299 34.299 0 0 0-24.264-10.053zm20.592 405.91a20.57 20.57 0 0 1-6.035 14.557 20.57 20.57 0 0 1-14.557 6.035H164.201a20.57 20.57 0 0 1-14.557-6.035 20.57 20.57 0 0 1-6.035-14.557V164.196a20.57 20.57 0 0 1 6.035-14.556 20.57 20.57 0 0 1 14.557-6.036H535.8a20.57 20.57 0 0 1 14.557 6.036 20.57 20.57 0 0 1 6.035 14.556z"/>
  </symbol>
  <symbol id="stars" viewBox="0 0 700 700" width="32" height="32">
    <path d="M586.25 350c0-11.734 19.554-45.281 33.44-65.363l6.04-8.743-9.731-4.253c-23.88-10.45-60.113-29.7-65.93-39.77-5.73-9.93-2.836-48.668 1.058-72.992l1.653-10.324-10.438.195c-22.906.43-63.297-1.277-74.22-7.578-10.815-6.246-30.272-38.684-40.003-57.664l-4.559-8.89-8.207 5.679c-20.074 13.898-53.629 33.453-65.355 33.453-11.726 0-45.28-19.555-65.363-33.441l-8.742-6.04-4.25 9.731c-10.438 23.871-29.688 60.105-39.77 65.922-9.941 5.739-48.492 3.028-72.695-.726l-11.828-1.836 1.836 11.828c3.762 24.203 6.476 62.746.726 72.695-5.82 10.07-42.05 29.32-65.93 39.77l-9.73 4.254 6.039 8.742c13.902 20.07 33.457 53.617 33.457 65.352 0 11.727-19.555 45.28-33.441 65.355l-6.04 8.742 9.731 4.254c23.88 10.449 60.113 29.707 65.93 39.777 5.739 9.95 3.028 48.5-.726 72.703l-1.852 11.816 11.828-1.836c24.195-3.77 62.73-6.484 72.695-.734 10.07 5.808 29.32 42.05 39.77 65.922l4.262 9.73 8.734-6.039c20.07-13.887 53.617-33.44 65.36-33.44 11.726 0 45.28 19.554 65.354 33.44l8.735 6.04 4.261-9.723c10.457-23.88 29.707-60.121 39.777-65.93 9.93-5.75 48.668-2.829 72.992 1.058l11.934 1.906-1.906-11.926c-3.894-24.324-6.789-63.062-1.058-72.992 5.82-10.07 42.05-29.328 65.93-39.777l9.73-4.254-6.039-8.742c-13.906-20.07-33.461-53.625-33.461-65.352zm-10.185-25.262c-2.433-21.938-7.972-42.938-16.215-62.555 13.555 8.547 29.262 16.336 39.621 21.176-6.644 10.168-16.637 26.363-23.406 41.379zm-226.07 235.26c-115.79 0-210-94.211-210-210 0-115.79 94.211-210 210-210 115.79 0 210 94.21 210 210 0 115.789-94.21 210-210 210zm179.38-349.68c-14.453-18.516-31.676-34.766-51.082-48.074 17.727 3.273 40.75 3.964 54.102 4.05-1.48 11.164-3.281 28.36-3.02 44.023zm-112.21-110.14c6.133 11.184 17.22 30.18 28.402 43.445a225.538 225.538 0 0 0-70.297-19.68c15.277-6.899 31.781-17.125 41.895-23.766Zm-133.8.347c10.16 6.649 26.363 16.633 41.38 23.414-21.927 2.434-42.939 7.973-62.556 16.215 8.551-13.562 16.34-29.27 21.176-39.629zm-73.148 70.184a229.529 229.529 0 0 0-39.516 39.516c.29-14.859-1.25-31.062-2.617-42.12 11.062 1.363 27.266 2.894 42.133 2.605zm-109.69 112.66c10.36-4.84 26.066-12.625 39.621-21.176-8.234 19.61-13.773 40.617-16.215 62.555-6.77-15.023-16.762-31.219-23.406-41.379zm23.406 91.895c2.434 21.938 7.973 42.945 16.215 62.555-13.555-8.558-29.262-16.344-39.62-21.184 6.644-10.16 16.636-26.367 23.405-41.37zm44.152 156.65c1.364-11.059 2.906-27.266 2.617-42.133a229.564 229.564 0 0 0 39.516 39.516c-14.859-.289-31.07 1.25-42.133 2.618zm115.28 67.566c-4.84-10.359-12.625-26.066-21.176-39.62 19.61 8.234 40.617 13.772 62.555 16.214-15.012 6.762-31.219 16.754-41.379 23.406zm133.27 0c-10.16-6.648-26.363-16.633-41.37-23.414 21.937-2.433 42.937-7.972 62.554-16.215-8.558 13.555-16.348 29.27-21.184 39.63zm73.043-70.098a229.585 229.585 0 0 0 39.707-39.707c-.246 14.973 1.375 31.344 2.809 42.508-11.172-1.425-27.551-3.054-42.516-2.8zm70.176-91.566c8.242-19.617 13.781-40.625 16.215-62.555 6.774 15.016 16.766 31.211 23.406 41.38-10.352 4.827-26.066 12.616-39.62 21.175z"/><path d="M175 402.5h17.5V420H175ZM201.25 437.5h17.5V455h-17.5zM227.5 472.5H245V490h-17.5zM262.5 498.75H280v17.5h-17.5z"/>
  </symbol>
  <symbol id="planets" viewBox="0 0 700 700" width="32" height="32">
    <path d="M349.997 78.749c-106.01 0-197.94 61.152-242.54 150.01l-2.281.453.578 2.879c-17.293 35.672-27.004 75.68-27.004 117.91 0 149.57 121.68 271.25 271.25 271.25s271.25-121.68 271.25-271.25S499.57 78.751 350 78.751zm223.94 152.07c-5.539-2.11-11.383-3.324-17.395-3.324-17.395 0-31.543-14.148-31.543-31.543v-12.207h-17.5v12.207c0 27.035 22.008 49.043 49.043 49.043a31.543 31.543 0 0 1 17.5 5.293l12.652 8.433c9.965 25.762 15.836 53.523 16.828 82.512h-28.027a20.158 20.158 0 0 1-16.816-8.996l-30.223-45.344a54.745 54.745 0 0 0-45.613-24.398c-14.648 0-28.422 5.703-38.78 16.066L422.3 300.323a20.093 20.093 0 0 1-14.297 5.922H378.96c-11.145 0-20.21-9.066-20.21-20.21v-17.298c0-9.61 6.831-17.938 16.25-19.828a37.67 37.67 0 0 0 30.02-32.297l3.964-31.71a20.124 20.124 0 0 1 13.152-16.493l72.844-26.496c32.82 22.95 59.988 53.41 78.957 88.906zm-232.69-134.36v21.656a4.388 4.388 0 0 1-4.375 4.375h-26.25c-12.066 0-21.875 9.809-21.875 21.875a4.388 4.388 0 0 1-4.375 4.375h-24.789a205.991 205.991 0 0 0-65.293 10.598l-18.105 6.04c43.465-40.946 101.3-66.739 165.06-68.919zm-245 253.53c0-31 5.61-60.707 15.836-88.191 2.941 10.203 8.207 19.531 15.723 27.125L110.6 311.892a28.513 28.513 0 0 0-5.68 17.125l.07 25.148c.009 4.34 1.051 8.7 3 12.609l10.013 20.02c4.828 9.676 14.566 15.695 25.398 15.695h33.75a10.9 10.9 0 0 1 10.586 8.25l27.547 110.23a28.375 28.375 0 0 0 27.562 21.516c15.664 0 28.402-12.738 28.402-28.402v-30.188c0-3.902 2.101-7.535 5.496-9.469l41.43-23.688c8.84-5.039 14.324-14.488 14.324-24.664v-65.188c0-15.664-12.738-28.402-28.402-28.402h-22.328c-3.656 0-7.051-1.812-9.074-4.855l-23.328-35a28.342 28.342 0 0 0-23.633-12.645h-77.59a10.867 10.867 0 0 1-7.72-3.196 45.922 45.922 0 0 1-12.601-23.555l-3.719-18.602a254.402 254.402 0 0 1 27.562-42.648l48.168-16.055a188.725 188.725 0 0 1 59.75-9.695h24.789c12.066 0 21.875-9.809 21.875-21.875a4.388 4.388 0 0 1 4.375-4.375h26.25c12.066 0 21.875-9.809 21.875-21.875V96.452c42.699 1.461 82.738 13.512 117.6 33.617l-60.184 21.883c-13.371 4.856-22.777 16.641-24.543 30.773l-3.965 31.711a20.199 20.199 0 0 1-16.09 17.316c-17.57 3.508-30.32 19.06-30.32 36.977v17.297c0 20.79 16.922 37.711 37.711 37.711h29.043c10.07 0 19.54-3.922 26.672-11.05l21.762-21.763c7.063-7.05 16.434-10.938 26.406-10.938a37.253 37.253 0 0 1 31.062 16.617l30.223 45.344a37.633 37.633 0 0 0 31.38 16.793h28.026c-1.777 52.176-19.363 100.38-48.14 140h-37.724a47.09 47.09 0 0 0-44.723 32.234 29.592 29.592 0 0 1-28.117 20.258h-3.945c-25.996 0-47.137 21.141-47.137 47.137v1.516c-14.227 2.484-28.824 3.847-43.75 3.847-139.91 0-253.75-113.84-253.75-253.75zm47.285-52.867a30.03 30.03 0 0 0 4.61.367h77.585c3.657 0 7.051 1.813 9.075 4.856l23.328 35a28.342 28.342 0 0 0 23.633 12.645h22.328c6.015 0 10.906 4.89 10.906 10.902v65.188c0 3.902-2.102 7.535-5.496 9.468l-41.43 23.688c-8.84 5.04-14.324 14.488-14.324 24.664v30.188c0 6.012-4.891 10.902-10.902 10.902a10.9 10.9 0 0 1-10.586-8.25l-27.547-110.23a28.375 28.375 0 0 0-27.562-21.516H143.4c-4.165 0-7.891-2.308-9.758-6.019l-10.008-20.02a11.087 11.087 0 0 1-1.156-4.848l-.067-25.148c-.008-2.355.77-4.68 2.18-6.57zm267.94 299.05c1.148-15.293 13.824-27.43 29.41-27.43h3.945a47.044 47.044 0 0 0 44.711-32.234 29.625 29.625 0 0 1 28.125-20.266h23.793c-33.637 38.684-78.734 67.121-129.98 79.93z"/><path d="M183.747 244.999h17.5v17.5h-17.5zM218.747 244.999h17.5v17.5h-17.5zM472.497 306.249h17.5v17.5h-17.5zM428.747 516.249h17.5v17.5h-17.5zM384.997 533.749h17.5v17.5h-17.5Z"/>
  </symbol>
  <symbol id="moons" viewBox="0 0 700 700" width="32" height="32">
    <path d="M350 92.878c-141.769 0-257.12 115.341-257.12 257.12 0 47.11 12.79 91.261 35.003 129.275l-.16.126c.223.3.49.555.723.855C173.2 556.094 255.74 607.122 350 607.122c141.769 0 257.12-115.341 257.12-257.12 0-141.778-115.351-257.12-257.12-257.12zm-106.516 41.537c26.83.704 48.454 22.702 48.454 49.699 0 27.445-22.32 49.765-49.765 49.765s-49.765-22.32-49.765-49.765h-16.34c19.317-20.246 42.1-37.143 67.416-49.699ZM350 590.53c-70.734 0-134.422-30.704-178.472-79.476 9.257 3.11 19.051 4.828 29.178 4.828 50.305 0 91.236-40.93 91.236-91.236h-16.589c0 41.164-33.491 74.648-74.647 74.648-23.09 0-44.3-10.402-58.574-28.5C121.404 435.262 109.47 394.005 109.47 350c0-64.147 25.29-122.47 66.368-165.637.134 36.469 29.838 66.105 66.339 66.105 36.587 0 66.353-29.766 66.353-66.353 0-27.004-16.24-50.255-39.456-60.608A239.54 239.54 0 0 1 350 109.468c79.543 0 150.158 38.842 193.97 98.516a57.639 57.639 0 0 0-28.085-7.283v16.588c22.868 0 41.47 18.603 41.47 41.47 0 22.87-18.602 41.472-41.47 41.472-22.869 0-41.471-18.603-41.471-41.471h-16.589c0 32.007 26.046 58.06 58.06 58.06 30.929 0 56.208-24.328 57.892-54.842a239.04 239.04 0 0 1 16.755 88.018c0 132.621-107.9 240.531-240.531 240.531z"/><path d="M242.176 225.585c22.868 0 41.47-18.603 41.47-41.471 0-22.868-18.602-41.47-41.47-41.47s-41.471 18.602-41.471 41.47 18.603 41.47 41.47 41.47zm0-66.354c13.719 0 24.882 11.164 24.882 24.883s-11.163 24.883-24.882 24.883c-13.72 0-24.883-11.164-24.883-24.883 0-13.72 11.164-24.883 24.883-24.883ZM200.705 366.586c-32.014 0-58.06 26.052-58.06 58.06 0 32.006 26.046 58.058 58.06 58.058s58.06-26.052 58.06-58.059-26.046-58.06-58.06-58.06zm0 99.53c-22.868 0-41.471-18.603-41.471-41.47 0-22.87 18.603-41.472 41.47-41.472 22.87 0 41.472 18.603 41.472 41.471 0 22.868-18.603 41.471-41.471 41.471zM515.884 291.938c18.295 0 33.176-14.88 33.176-33.176s-14.88-33.177-33.176-33.177-33.177 14.881-33.177 33.177c0 18.295 14.881 33.176 33.177 33.176zm0-49.765c9.15 0 16.588 7.44 16.588 16.589 0 9.15-7.439 16.588-16.588 16.588-9.15 0-16.589-7.439-16.589-16.588 0-9.15 7.44-16.589 16.589-16.589zM482.707 507.587c-9.15 0-16.588-7.439-16.588-16.588H449.53c0 18.295 14.881 33.176 33.177 33.176s33.177-14.88 33.177-33.176h-16.589c0 9.15-7.439 16.588-16.588 16.588zM366.588 408.057c22.869 0 41.471-18.603 41.471-41.471 0-22.868-18.602-41.471-41.47-41.471-22.869 0-41.471 18.603-41.471 41.47 0 22.87 18.602 41.472 41.47 41.472zm0-66.354c13.72 0 24.883 11.164 24.883 24.883s-11.163 24.882-24.883 24.882c-13.719 0-24.882-11.163-24.882-24.882 0-13.72 11.163-24.883 24.882-24.883zM358.294 565.646c-9.15 0-16.588-7.439-16.588-16.588 0-9.15 7.439-16.588 16.588-16.588V515.88c-18.295 0-33.176 14.881-33.176 33.177 0 18.295 14.88 33.177 33.176 33.177s33.177-14.882 33.177-33.177h-16.588c0 9.15-7.44 16.588-16.589 16.588zM192.41 291.938c0-18.295-14.88-33.176-33.176-33.176s-33.177 14.88-33.177 33.176 14.881 33.177 33.177 33.177 33.177-14.881 33.177-33.177zm-49.764 0c0-9.15 7.439-16.588 16.588-16.588 9.15 0 16.588 7.439 16.588 16.588 0 9.15-7.439 16.589-16.588 16.589-9.15 0-16.588-7.44-16.588-16.589zM416.354 167.526v16.588c9.149 0 16.588 7.439 16.588 16.588 0 9.15-7.439 16.589-16.588 16.589-9.15 0-16.589-7.44-16.589-16.589h-16.588c0 18.296 14.881 33.177 33.177 33.177 18.295 0 33.176-14.881 33.176-33.177 0-18.295-14.88-33.176-33.176-33.176z"/><path d="M366.588 300.232v16.589c27.445 0 49.766 22.32 49.766 49.765s-22.32 49.765-49.766 49.765v16.588c36.588 0 66.354-29.766 66.354-66.353 0-36.587-29.766-66.354-66.354-66.354zM532.472 349.998c-22.868 0-41.47 18.602-41.47 41.47 0 22.869 18.602 41.471 41.47 41.471s41.471-18.602 41.471-41.47c0-22.869-18.603-41.471-41.47-41.471zm0 66.353c-13.719 0-24.882-11.163-24.882-24.883 0-13.719 11.163-24.882 24.882-24.882 13.72 0 24.883 11.163 24.883 24.882 0 13.72-11.164 24.883-24.883 24.883zM258.764 333.41c-9.15 0-16.588-7.44-16.588-16.59h-16.589c0 18.296 14.882 33.178 33.177 33.178 18.296 0 33.177-14.882 33.177-33.177h-16.589c0 9.15-7.438 16.588-16.588 16.588zM366.588 175.82c13.72 0 24.883-11.164 24.883-24.883s-11.163-24.882-24.883-24.882c-13.719 0-24.882 11.163-24.882 24.882 0 13.72 11.163 24.883 24.882 24.883zm0-33.177c4.57 0 8.295 3.718 8.295 8.294 0 4.577-3.725 8.294-8.295 8.294-4.569 0-8.294-3.717-8.294-8.294 0-4.576 3.725-8.294 8.294-8.294z"/>
  </symbol>

  <symbol id="show" viewBox="0 0 700 700" width="32" height="32">
    <path d="M350 204.056c-110.358 0-209.301 66.157-257.22 145.944C140.344 429.2 238.9 495.944 350 495.944c109.868 0 209.139-65.756 257.22-145.944C559.56 270.506 460.75 204.056 350 204.056ZM477.695 350c0 70.236-57.466 127.695-127.695 127.695-70.236 0-127.695-57.466-127.695-127.695 0-70.236 57.466-127.695 127.695-127.695 70.236 0 127.695 57.46 127.695 127.695zm-363.028 0c11.86-17.332 59.285-79.354 140.465-110.371-31.01 26.455-51.078 66.59-51.078 110.371 0 43.78 20.067 83.916 51.078 110.371C173.959 429.354 126.526 367.332 114.667 350zm330.191 110.371c31.018-26.455 51.085-66.59 51.085-110.371 0-43.78-20.067-83.916-51.078-110.371C526.038 270.646 572.56 332.668 585.33 350c-11.86 17.332-59.292 79.354-140.472 110.371zM295.268 350c0-30.1 24.63-54.731 54.732-54.731s54.731 24.63 54.731 54.731c0 30.102-24.63 54.731-54.731 54.731-30.102 0-54.731-24.63-54.731-54.731z"/>
  </symbol>
  <symbol id="edit" viewBox="0 0 700 700" width="32" height="32">
    <path d="m548.612 201.93-1.145-1.144-48.57-48.57c-15.43-15.43-40-16-56-.57l-.57.57-274.29 274.86c-1.715 1.715-2.856 3.43-3.43 5.715l-24 113.14c-1.144 3.43 0 7.43 2.856 10.285 2.285 2.285 5.144 3.43 8 3.43h2.285l113.14-24c2.285-.57 4-1.715 5.715-3.43l274.86-274.29c16.004-14.855 16.574-40 1.144-56zm-289.71 311.43-92.57 20 20-92.57 208.57-208.57 72.57 72.57zm272.57-272.57-47.43 48-73.141-73.14 48-47.43c6.285-6.856 16.57-6.856 23.43-.57l49.14 49.14c6.856 6.29 6.856 16.574 0 24z"/>
  </symbol>
  <symbol id="delete" viewBox="0 0 700 700" width="32" height="32">
    <path d="M559.988 210a52.51 52.51 0 0 0-15.375-37.125 52.51 52.51 0 0 0-37.125-15.375h-54.25a87.653 87.653 0 0 0-30.43-50.246 87.638 87.638 0 0 0-55.32-19.755h-35a87.64 87.64 0 0 0-55.32 19.755 87.656 87.656 0 0 0-30.43 50.246h-54.25a52.37 52.37 0 0 0-42.18 21.19 52.364 52.364 0 0 0-8 46.524 52.371 52.371 0 0 0 32.68 34.066V529.2a83.407 83.407 0 0 0 24.422 58.878 83.41 83.41 0 0 0 58.879 24.422h183.4a83.407 83.407 0 0 0 58.879-24.422A83.41 83.41 0 0 0 524.99 529.2V259.28a52.49 52.49 0 0 0 35-49.282zm-227.5-87.5h35a52.494 52.494 0 0 1 49.282 35H283.21a52.49 52.49 0 0 1 49.282-35zm109.2 455h-183.4a48.375 48.375 0 0 1-34.141-14.16 48.371 48.371 0 0 1-14.16-34.141v-266.7h280v266.7a48.375 48.375 0 0 1-14.16 34.14 48.371 48.371 0 0 1-34.141 14.16zm65.8-350h-315a17.498 17.498 0 0 1-15.155-26.25 17.499 17.499 0 0 1 15.156-8.75h315a17.498 17.498 0 0 1 15.156 26.25 17.499 17.499 0 0 1-15.156 8.75z"/><path d="M297.488 315c-4.64 0-9.094 1.843-12.375 5.125a17.504 17.504 0 0 0-5.125 12.375v175a17.498 17.498 0 0 0 26.25 15.155 17.499 17.499 0 0 0 8.75-15.156v-175c0-4.64-1.844-9.093-5.125-12.375A17.504 17.504 0 0 0 297.488 315ZM402.488 315c-4.64 0-9.094 1.843-12.375 5.125a17.504 17.504 0 0 0-5.125 12.375v175a17.498 17.498 0 0 0 26.25 15.155 17.499 17.499 0 0 0 8.75-15.156v-175c0-4.64-1.844-9.093-5.125-12.375A17.504 17.504 0 0 0 402.488 315Z"/>
  </symbol>
</svg>
